<?xml version="1.0" encoding="UTF-8" standalone="no"?>
<svg
   width="88.958794"
   height="102.46544"
   viewBox="0 0 88.958794 102.46544"
   version="1.1"
   id="svg2"
   sodipodi:docname="conda-dark.svg"
   inkscape:version="1.4.2 (ebf0e940d0, 2025-05-08)"
   style="background:transparent"
   xmlns:inkscape="http://www.inkscape.org/namespaces/inkscape"
   xmlns:sodipodi="http://sodipodi.sourceforge.net/DTD/sodipodi-0.dtd"
   xmlns="http://www.w3.org/2000/svg"
   xmlns:svg="http://www.w3.org/2000/svg"
   xmlns:rdf="http://www.w3.org/1999/02/22-rdf-syntax-ns#"
   xmlns:cc="http://creativecommons.org/ns#"
   xmlns:dc="http://purl.org/dc/elements/1.1/">
  <rect
     width="100%"
     height="100%"
     fill="transparent"
     id="rect1" />
  <sodipodi:namedview
     id="namedview2"
     pagecolor="#ffffff"
     bordercolor="#000000"
     borderopacity="0.25"
     inkscape:showpageshadow="2"
     inkscape:pageopacity="0.0"
     inkscape:pagecheckerboard="0"
     inkscape:deskcolor="#d1d1d1"
     inkscape:zoom="3.6844369"
     inkscape:cx="37.18343"
     inkscape:cy="63.781795"
     inkscape:window-width="1692"
     inkscape:window-height="1059"
     inkscape:window-x="0"
     inkscape:window-y="0"
     inkscape:window-maximized="1"
     inkscape:current-layer="g19" />
  <!-- Generator: Sketch 3.8.3 (29802) - http://www.bohemiancoding.com/sketch -->
  <title
     id="title1">logo_conda_RGB_inkscape</title>
  <desc
     id="desc1">Created with Sketch.</desc>
  <defs
     id="defs1">
    <path
       d="m 12.125266,1.9631383 c 3.69532,9.8156917 16.628937,22.8647877 32.565001,22.8647877 8.776383,0 16.744416,-3.117925 22.980267,-8.429947 0.461915,-0.230957 4.734628,4.619149 6.466809,6.466809 0.346436,0.461915 0.346436,0.577393 0.346436,0.577393 C 53.46665,41.803299 17.783724,39.147288 0.92382981,7.3906385 2.3095745,2.7714894 4.2727129,0 4.2727129,0 8.7763832,1.8476596 12.125266,1.9631383 12.125266,1.9631383 Z"
       id="path-1" />
    <rect
       id="path-3"
       x="0.46191722"
       y="0.57739365"
       width="90.535324"
       height="103.93085" />
  </defs>
  <g
     id="Page-1"
     stroke="none"
     stroke-width="1"
     fill="none"
     fill-rule="evenodd"
     transform="translate(-0.21094767,-0.10123748)">
    <g
       id="logo_conda_RGB_inkscape"
       transform="translate(-2,-3)">
      <g
         id="g3588">
        <g
           id="g19-Clipped">
          <g
             id="g19"
             transform="translate(2.309575,2.309575)">
            <g
               id="g23"
               stroke="#43b02a"
               stroke-width="0.25"
               fill="#43b02a"
               style="fill-opacity:1.0;fill:#ced6dd;stroke-opacity:1.0;stroke:#ced6dd">
              <path
                 d="m 46.422448,23.326703 c -0.692872,-1.270266 -2.078617,-3.810798 -4.50367,-6.235852 -0.808351,3.464362 -0.808351,6.466809 -0.692873,7.968033 -0.115478,0 2.194096,-1.154788 5.196543,-1.732181 z"
                 id="path25"
                 style="fill-opacity:1.0;fill:#ced6dd;stroke-opacity:1.0;stroke:#ced6dd" />
              <path
                 id="path27"
                 d=""
                 style="fill-opacity:1.0;fill:#ced6dd;stroke-opacity:1.0;stroke:#ced6dd" />
              <path
                 id="path29"
                 d=""
                 style="fill-opacity:1.0;fill:#ced6dd;stroke-opacity:1.0;stroke:#ced6dd" />
              <path
                 id="path31"
                 d=""
                 style="fill-opacity:1.0;fill:#ced6dd;stroke-opacity:1.0;stroke:#ced6dd" />
              <path
                 d="m 35.682926,28.176809 c -1.270266,-1.039308 -3.695319,-2.886968 -7.275159,-4.388191 0.92383,3.810798 2.425053,6.582287 3.233404,7.968032 0,0.230957 1.616702,-1.732181 4.041755,-3.579841 z"
                 id="path35"
                 style="fill-opacity:1.0;fill:#ced6dd;stroke-opacity:1.0;stroke:#ced6dd" />
              <path
                 d="m 49.655853,19.862341 c 0.808351,-2.078617 2.309574,-5.081064 4.734627,-8.19899 -1.501223,-2.6560103 -3.57984,-5.312021 -6.35133,-7.6215956 -2.194095,2.7714895 -3.695319,5.5429789 -4.734628,8.3144686 3.117926,2.656011 5.081065,5.4275 6.351331,7.506117 z"
                 id="path37"
                 style="fill-opacity:1.0;fill:#ced6dd;stroke-opacity:1.0;stroke:#ced6dd" />
              <path
                 d="m 28.292288,36.491278 v 0 c -1.84766,-0.346437 -5.542979,-0.92383 -9.815692,-0.577394 2.540532,3.57984 5.4275,5.889415 7.044203,6.928724 -0.115479,0.115478 0.808351,-3.002447 2.771489,-6.35133 z"
                 id="path39"
                 style="fill-opacity:1.0;fill:#ced6dd;stroke-opacity:1.0;stroke:#ced6dd" />
              <path
                 d="m 11.085958,48.96298 c 4.157234,-2.656011 8.083511,-3.810798 10.739521,-4.157234 -2.078617,-1.732181 -5.081064,-4.50367 -7.506117,-8.314468 -3.464362,0.692872 -7.0442022,2.078617 -10.3930853,4.388191 1.9631384,3.464362 4.5036704,6.120373 7.1596813,8.083511 z"
                 id="path43"
                 style="fill-opacity:1.0;fill:#ced6dd;stroke-opacity:1.0;stroke:#ced6dd" />
              <path
                 d="m 24.366011,47.923672 c -1.616702,0.115478 -5.658457,0.461915 -10.277606,3.233404 4.272712,2.656011 8.314468,3.926277 10.277606,4.388192 v 0 c -0.346436,-2.540532 -0.346436,-5.196543 0,-7.621596 z"
                 id="path45"
                 style="fill-opacity:1.0;fill:#ced6dd;stroke-opacity:1.0;stroke:#ced6dd" />
              <path
                 d="m 38.10798,13.857447 c -2.540532,-1.732181 -5.773937,-3.233404 -9.815692,-4.157234 -0.808351,3.464362 -0.92383,6.697766 -0.692872,9.469256 3.926276,1.270266 6.928723,3.117925 9.00734,4.619149 0,-2.309575 0.346436,-5.889415 1.501224,-9.931171 z"
                 id="path47"
                 style="fill-opacity:1.0;fill:#ced6dd;stroke-opacity:1.0;stroke:#ced6dd" />
              <path
                 d="m 73.675428,5.4275001 c 0,0 3.233404,9.9311709 3.348883,15.0122349 -3.926277,0.923829 -7.390639,2.309574 -11.201437,5.542978 2.078617,1.039309 3.926277,2.309575 5.658458,3.810798 1.847659,1.616703 3.57984,2.309575 6.004894,1.154788 1.385744,-0.92383 9.122819,-8.891862 9.93117,-9.931171 1.84766,-1.963138 1.385745,-5.196542 -0.577394,-6.697766 C 81.989896,9.8156918 73.675428,5.4275001 73.675428,5.4275001 Z"
                 id="path49"
                 style="fill-opacity:1.0;fill:#ced6dd;stroke-opacity:1.0;stroke:#ced6dd" />
              <path
                 d="M 1.9631383,37.646065 C 5.4275001,35.33649 8.8918619,33.835267 12.356224,33.026916 10.855,29.90899 9.8156918,26.32915 9.5847343,22.171915 6.2358512,26.906543 3.5798405,32.218565 1.9631383,37.646065 Z"
                 id="path51"
                 style="fill-opacity:1.0;fill:#ced6dd;stroke-opacity:1.0;stroke:#ced6dd" />
              <path
                 d="m 27.368458,32.565001 c -1.154787,-2.194096 -2.656011,-5.773936 -3.464362,-10.162128 -3.117925,-0.692872 -6.582287,-1.039309 -10.624042,-0.461915 0.230957,4.041755 1.385744,7.506117 2.886968,10.508564 4.619149,-0.692872 8.545425,-0.346436 11.201436,0.115479 z"
                 id="path55"
                 style="fill-opacity:1.0;fill:#ced6dd;stroke-opacity:1.0;stroke:#ced6dd" />
              <path
                 id="path57"
                 d=""
                 style="fill-opacity:1.0;fill:#ced6dd;stroke-opacity:1.0;stroke:#ced6dd" />
              <path
                 d="m 13.280054,17.783724 c 3.695319,-0.461915 7.159681,-0.230958 10.162127,0.346436 -0.115478,-2.886968 0.115479,-6.004894 0.808352,-9.3537768 1.963138,-1.1547872 3.926276,-2.1940958 6.004893,-3.1179256 3.69532,0.9238298 6.697766,2.3095745 9.238298,3.9262767 1.154788,-2.6560107 2.656011,-5.3120214 4.734628,-7.9680321 -10.508564,1.6167021 -20.439734,6.2358512 -28.06133,13.3955328 -2.425053,2.194095 -4.619149,4.734627 -6.5822877,7.390638 1.1547877,-1.732181 2.4250537,-3.233404 3.6953197,-4.619149 z"
                 id="path59"
                 style="fill-opacity:1.0;fill:#ced6dd;stroke-opacity:1.0;stroke:#ced6dd" />
              <path
                 id="path61"
                 d=""
                 style="fill-opacity:1.0;fill:#ced6dd;stroke-opacity:1.0;stroke:#ced6dd" />
              <path
                 id="path63"
                 d=""
                 style="fill-opacity:1.0;fill:#ced6dd;stroke-opacity:1.0;stroke:#ced6dd" />
              <path
                 id="path65"
                 d=""
                 style="fill-opacity:1.0;fill:#ced6dd;stroke-opacity:1.0;stroke:#ced6dd" />
              <path
                 d="M 1.3857447,39.955639 C 1.6167022,39.147288 1.7321809,38.454416 1.9631383,37.646065 1.7321809,38.454416 1.5012234,39.262767 1.3857447,39.955639 Z"
                 id="path67"
                 style="fill-opacity:1.0;fill:#ced6dd;stroke-opacity:1.0;stroke:#ced6dd" />
              <path
                 id="path69"
                 d=""
                 style="fill-opacity:1.0;fill:#ced6dd;stroke-opacity:1.0;stroke:#ced6dd" />
              <path
                 d="M 8.3144683,51.041597 C 5.6584576,48.847501 3.0024469,45.960533 0.92382981,42.380693 -0.23095745,48.270108 -0.23095745,54.505959 0.69287236,60.279895 2.8869682,56.23814 5.5429789,53.351172 8.3144683,51.041597 Z"
                 id="path71"
                 style="fill-opacity:1.0;fill:#ced6dd;stroke-opacity:1.0;stroke:#ced6dd" />
              <path
                 id="path73"
                 d=""
                 style="fill-opacity:1.0;fill:#ced6dd;stroke-opacity:1.0;stroke:#ced6dd" />
              <path
                 d="M 85.916173,80.835109 C 78.641013,73.906385 77.139789,69.402715 71.019417,74.137343 54.275002,87.301917 30.139948,79.449364 25.058884,59.009629 24.135054,58.894151 17.668245,57.623885 11.085958,53.120214 7.8525534,55.660746 4.5036703,59.587023 1.7321809,65.245481 H 1.6167022 C 12.125266,104.97016 63.282342,114.20846 86.955481,89.380534 90.881758,85.2233 87.301917,82.336332 85.916173,80.835109 Z"
                 id="path75"
                 style="fill-opacity:1.0;fill:#ced6dd;stroke-opacity:1.0;stroke:#ced6dd" />
              <path
                 id="path77"
                 d=""
                 style="fill-opacity:1.0;fill:#ced6dd;stroke-opacity:1.0;stroke:#ced6dd" />
              <path
                 d="m 68.247928,6.35133 c -3.348884,1.6167021 -6.004894,3.695319 -8.083511,5.889415 1.73218,3.695319 2.540532,7.044202 3.002446,9.122819 3.233405,-2.540532 6.466809,-4.041755 8.429948,-4.850106 C 71.365853,14.203883 70.557502,9.9311705 68.247928,6.35133 Z"
                 id="path79"
                 style="fill-opacity:1.0;fill:#ced6dd;stroke-opacity:1.0;stroke:#ced6dd" />
              <path
                 id="path81"
                 d=""
                 style="fill-opacity:1.0;fill:#ced6dd;stroke-opacity:1.0;stroke:#ced6dd" />
              <path
                 d="m 56.700055,16.628937 c -1.616702,2.540532 -2.540532,4.850106 -3.002447,6.120372 v 0 c 1.616702,0.115479 3.233404,0.346436 4.850106,0.692872 -0.115478,-1.385744 -0.692872,-3.810798 -1.847659,-6.813244 z"
                 id="path83"
                 style="fill-opacity:1.0;fill:#ced6dd;stroke-opacity:1.0;stroke:#ced6dd" />
              <path
                 d="M 69.518193,3.810798 C 68.9408,3.5798405 68.247928,3.3488831 67.670534,3.2334043 68.363406,3.3488831 68.9408,3.5798405 69.518193,3.810798 Z"
                 id="path85"
                 style="fill-opacity:1.0;fill:#ced6dd;stroke-opacity:1.0;stroke:#ced6dd" />
              <path
                 d="M 57.739363,7.8525534 C 59.81798,5.8894151 62.243034,4.0417554 65.245481,2.4250533 60.972768,1.3857447 56.584576,0.92382981 51.849948,0.92382981 54.275002,3.1179256 56.23814,5.5429789 57.739363,7.8525534 Z"
                 id="path87"
                 style="fill-opacity:1.0;fill:#ced6dd;stroke-opacity:1.0;stroke:#ced6dd" />
              <path
                 id="path89"
                 d=""
                 style="fill-opacity:1.0;fill:#ced6dd;stroke-opacity:1.0;stroke:#ced6dd" />
            </g>
            <g
               id="g91"
               transform="translate(8.083511,62.358512)">
              <g
                 id="use111"
                 stroke="#2db24a"
                 stroke-width="0.25"
                 style="stroke-opacity:1.0;stroke:#ced6dd">
                <path
                   d="m 12.125266,1.9631383 c 3.69532,9.8156917 16.628937,22.8647877 32.565001,22.8647877 8.776383,0 16.744416,-3.117925 22.980267,-8.429947 0.461915,-0.230957 4.734628,4.619149 6.466809,6.466809 0.346436,0.461915 0.346436,0.577393 0.346436,0.577393 C 53.46665,41.803299 17.783724,39.147288 0.92382981,7.3906385 2.3095745,2.7714894 4.2727129,0 4.2727129,0 8.7763832,1.8476596 12.125266,1.9631383 12.125266,1.9631383 Z"
                   id="path2"
                   style="stroke-opacity:1.0;stroke:#ced6dd" />
              </g>
            </g>
          </g>
        </g>
      </g>
    </g>
  </g>
  <metadata
     id="metadata2">
    <rdf:RDF>
      <cc:Work
         rdf:about="">
        <dc:title>logo_conda_RGB_inkscape</dc:title>
      </cc:Work>
    </rdf:RDF>
  </metadata>
</svg>
